<svg width="321" height="326" viewBox="0 0 321 326" fill="none" xmlns="http://www.w3.org/2000/svg">
<path d="M62.8168 106.166C62.8168 106.166 49.575 112.466 48.456 125.673C47.3369 138.881 80.8345 175.089 80.8345 175.089L172.707 117.285L138.997 66.4195L62.8168 106.166Z" fill="#C7DCF9"/>
<path d="M84.7298 117.101C84.7298 117.101 75.3928 128.077 73.0843 139.681C70.7758 151.284 71.7522 171.662 72.7785 179.25C88.6778 192.09 147.048 176.496 147.048 176.496L199.53 105.596C199.53 105.596 188.629 87.9013 183.384 83.2024C178.139 78.5035 161.816 73.3217 143.967 81.9417C134.23 97.9493 84.7298 117.101 84.7298 117.101Z" fill="#E1ECFF"/>
<g style="mix-blend-mode:multiply">
<path d="M80.6112 122.729C80.6112 122.729 103.222 128.339 127.486 117.035C151.75 105.731 154.435 78.3214 154.435 78.3214L143.955 81.9465L84.7296 117.101L80.6112 122.729Z" fill="#E1ECFF"/>
</g>
<path d="M176.315 199.798C176.315 199.798 204.309 198.091 212.307 199.569C220.305 201.048 244.293 246.745 253.209 250.674C262.124 254.602 268.933 246.619 278.046 240.417C287.158 234.215 295.399 226.898 295.482 224.071C295.564 221.243 290.778 210.291 287.14 208.261C283.502 206.232 273.371 206.754 268.207 210.575C258.819 189.503 245.417 158.752 234.785 155.112C224.153 151.471 192.679 151.52 192.679 151.52L176.315 199.798Z" fill="#E1ECFF"/>
<g style="mix-blend-mode:multiply" opacity="0.51">
<path d="M204.358 177.189C204.358 177.189 227.311 178.146 234.177 186.2C241.043 194.255 257.014 245.296 271.058 245.583C272.416 262.374 243.911 270.394 243.911 270.394L169.408 198.057L204.358 177.189Z" fill="#E1ECFF"/>
</g>
<path d="M100.85 200.619C100.85 200.619 120.49 235.547 136.759 244.338C153.028 253.129 181.249 250.426 189.482 256.346C197.716 262.267 198.156 293.345 206.504 301.022C214.852 308.699 226.158 312.985 236.348 311.37C246.537 309.754 254.408 304.283 254.201 299.662C253.994 295.042 253.312 291.068 248.328 288.932C243.345 286.796 236.42 285.205 235.935 282.356C235.449 279.506 227.053 236.194 223.992 224.475C220.93 212.755 202.258 197.425 179.069 190.632C156.431 174.135 124.038 184.042 124.038 184.042L100.85 200.619Z" fill="#E1ECFF"/>
<g style="mix-blend-mode:multiply">
<path d="M106.507 209.937C106.507 209.937 126.322 209.613 143.53 200.626C138.924 182.808 128.109 178.184 128.109 178.184L100.85 200.619L106.507 209.937Z" fill="#E1ECFF"/>
</g>
<path d="M121.122 19.6308C105.098 12.3949 72.4979 11.7878 54.1643 37.95C35.8306 64.1121 47.5377 89.1727 56.7526 100.586C66.4037 112.565 97.9583 129.739 129.037 109.514C160.115 89.2898 160.002 37.1951 121.122 19.6308Z" fill="#E1ECFF"/>
<path d="M119.484 34.9836C133.442 37.3383 143.665 56.0114 140.296 74.7771C136.927 93.5428 121.87 107.023 104.039 108.326C86.2073 109.629 67.6475 98.6453 66.2075 75.8627C64.8273 53.9685 89.173 29.873 119.484 34.9836Z" fill="#1C3177"/>
<g style="mix-blend-mode:multiply">
<path d="M89.6281 181.808C106.966 172.294 92.2983 154.23 109.85 148.713C133.6 150.472 140.025 148.833 140.025 148.833C140.025 148.833 97.6868 191.394 89.6281 181.808Z" fill="#E1ECFF"/>
</g>
<path d="M101.12 130.072L136.076 204.71L178.147 200.864L215.051 173.864L224.184 138.229L190.656 56.4478L179.761 96.5266L146.577 126.777L101.12 130.072Z" fill="#FF97C9"/>
<path d="M89.6283 181.808C99.4498 180.342 104.046 173.572 106.847 170.517C108.273 168.958 107.883 167.702 106.831 163.552C105.779 159.403 108.154 154.913 111.671 152.823C114.034 158.07 116.56 158.925 118.44 158.545C120.319 158.165 121.504 146.701 127.713 146.383C133.922 146.065 139.449 153.936 140.553 157.978C141.658 162.02 138.441 173.978 133.968 182.52C129.496 191.062 123.09 201.695 107.343 205.949C91.5955 210.203 81.9706 202.664 76.0458 192.713C74.0467 189.355 73.0863 184.592 72.7813 179.234C72.7813 179.234 76.6727 183.711 89.6283 181.808Z" fill="#E1ECFF"/>
<path d="M202.203 84.6143C202.203 84.6143 204.52 90.6683 203.402 93.1635C202.284 95.6587 200.674 97.7691 199.602 100.941C198.529 104.112 201.21 115.612 206.983 117.229C212.756 118.845 217.069 113.305 218.353 110.179C219.638 107.054 218.278 99.1665 215.7 93.7772C213.121 88.3879 208.644 83.7458 202.203 84.6143Z" fill="#E1ECFF"/>
<path d="M203.505 7.36586L204.942 9.84149C205.028 9.99156 205.15 10.1183 205.296 10.2107C205.442 10.3031 205.609 10.3584 205.781 10.3717L208.637 10.5811C208.837 10.5961 209.029 10.6667 209.19 10.7851C209.352 10.9034 209.477 11.0647 209.551 11.2505C209.626 11.4364 209.647 11.6394 209.612 11.8366C209.576 12.0337 209.487 12.217 209.353 12.3658L207.443 14.5044C207.327 14.6333 207.244 14.7885 207.201 14.9567C207.159 15.1249 207.158 15.3009 207.199 15.4695L207.868 18.2381C207.915 18.4323 207.907 18.6357 207.844 18.8255C207.782 19.0153 207.668 19.1839 207.515 19.3122C207.361 19.4404 207.175 19.5233 206.978 19.5513C206.78 19.5794 206.578 19.5515 206.395 19.4709L203.773 18.3133C203.614 18.2427 203.441 18.2119 203.268 18.2235C203.095 18.2352 202.928 18.289 202.78 18.3802L200.337 19.8795C200.167 19.9851 199.97 20.0407 199.77 20.04C199.569 20.0393 199.373 19.9825 199.203 19.8758C199.034 19.7691 198.897 19.617 198.81 19.4367C198.722 19.2564 198.687 19.0551 198.708 18.8558L199.004 16.0222C199.021 15.8496 198.997 15.6753 198.932 15.5144C198.867 15.3534 198.764 15.2107 198.632 15.0986L196.452 13.2358C196.299 13.1064 196.186 12.9368 196.125 12.7462C196.063 12.5555 196.057 12.3515 196.106 12.1573C196.155 11.9631 196.257 11.7866 196.401 11.6476C196.545 11.5086 196.725 11.4129 196.921 11.3712L199.723 10.7803C199.893 10.7439 200.05 10.6668 200.183 10.5555C200.316 10.4443 200.419 10.3024 200.484 10.1421L201.576 7.49594C201.652 7.30913 201.779 7.14739 201.942 7.02921C202.105 6.91103 202.298 6.84117 202.5 6.8276C202.701 6.81404 202.902 6.85732 203.079 6.95249C203.257 7.04767 203.404 7.19092 203.505 7.36586Z" fill="#FEC272"/>
<path d="M86.4066 287.508L87.6119 289.585C87.6839 289.712 87.7859 289.818 87.9089 289.895C88.0319 289.973 88.1721 290.018 88.317 290.028L90.7131 290.212C90.8801 290.225 91.0402 290.285 91.1752 290.384C91.3102 290.483 91.4148 290.618 91.4771 290.774C91.5394 290.929 91.557 291.099 91.5279 291.264C91.4988 291.429 91.4241 291.583 91.3123 291.707L89.7085 293.496C89.61 293.605 89.54 293.737 89.5047 293.879C89.4694 294.022 89.47 294.171 89.5064 294.313L90.0658 296.647C90.1044 296.81 90.0969 296.981 90.0441 297.139C89.9914 297.298 89.8955 297.439 89.7672 297.547C89.6389 297.654 89.4833 297.724 89.3176 297.748C89.152 297.772 88.9829 297.75 88.8293 297.683L86.6332 296.71C86.5002 296.652 86.3551 296.626 86.2102 296.636C86.0653 296.646 85.9249 296.69 85.8009 296.766L83.763 298.017C83.6199 298.105 83.455 298.151 83.287 298.15C83.119 298.15 82.9546 298.102 82.8125 298.012C82.6704 297.922 82.5563 297.795 82.4831 297.643C82.4099 297.492 82.3806 297.323 82.3985 297.156L82.6395 294.768C82.6545 294.622 82.6337 294.475 82.579 294.338C82.5243 294.202 82.4373 294.081 82.3254 293.986L80.5 292.429C80.3724 292.32 80.2778 292.178 80.2268 292.018C80.1758 291.859 80.1705 291.688 80.2113 291.526C80.2522 291.363 80.3377 291.215 80.4582 291.099C80.5787 290.982 80.7293 290.902 80.8931 290.867L83.2387 290.363C83.3813 290.333 83.5144 290.269 83.6266 290.176C83.7387 290.083 83.8264 289.964 83.882 289.829L84.7975 287.609C84.862 287.454 84.9687 287.32 85.1053 287.223C85.242 287.125 85.4032 287.068 85.5707 287.058C85.7382 287.047 85.9053 287.084 86.0531 287.163C86.2008 287.243 86.3233 287.363 86.4066 287.508Z" fill="#FEC272"/>
<g style="mix-blend-mode:soft-light" opacity="0.48">
<path d="M109.045 58.7998C118.746 55.9652 125.797 50.8855 124.795 47.454C123.792 44.0226 115.115 43.5388 105.414 46.3735C95.7127 49.2082 88.6612 54.2879 89.6639 57.7193C90.6665 61.1507 99.3437 61.6345 109.045 58.7998Z" fill="white"/>
</g>
<g style="mix-blend-mode:multiply">
<path d="M139.048 169.624C139.048 169.624 127.037 160.264 124.984 160.403C122.931 160.541 118.005 168.913 119.381 170.95C120.756 172.988 127.555 179.507 134.65 181.175C136.612 176.726 139.048 169.624 139.048 169.624Z" fill="#E1ECFF"/>
</g>
<g style="mix-blend-mode:multiply" opacity="0.5">
<path d="M146.577 126.777L178.147 200.864L215.051 173.864L179.761 96.5266L146.577 126.777Z" fill="#FF97C9"/>
</g>
<g style="mix-blend-mode:multiply">
<path d="M227.238 238.815C223.495 242.367 219.217 245.31 214.561 247.536C210.192 249.567 208.914 253.207 210.709 259.606C212.503 266.004 213.945 276.073 216.926 278.549C219.907 281.025 229.447 278.958 234.023 272.427C231.635 260.329 227.238 238.815 227.238 238.815Z" fill="#E1ECFF"/>
</g>
<g style="mix-blend-mode:multiply">
<path d="M248.884 170.882C248.884 170.882 243.447 173.701 244.242 177.559C245.036 181.416 252.028 199.849 254.399 201.393C256.77 202.938 263.246 199.478 263.246 199.478C255.077 180.51 248.884 170.882 248.884 170.882Z" fill="#E1ECFF"/>
</g>
<path d="M15.5176 231.858C10.4412 222.923 24.2878 212.061 36.6842 211.94C49.0806 211.82 55.0393 222.87 59.6997 226.828C69.4335 235.087 69.731 243.79 63.6566 247.95C57.5821 252.11 22.2356 243.677 15.5176 231.858Z" fill="#99ADF9"/>
<path d="M254.981 71.9865C251.167 69.0763 253.873 54.0052 262.146 49.9622C270.419 45.9192 281.238 49.0001 283.896 54.794C286.554 60.5879 262.799 77.9469 254.981 71.9865Z" fill="#99ADF9"/>
<path d="M297.203 77.1059C295.535 79.8592 294.812 87.4287 298.795 88.4986C302.778 89.5685 305.204 81.6671 303.565 77.75C301.926 73.8329 298.316 75.2661 297.203 77.1059Z" fill="#99ADF9"/>
<path opacity="0.44" d="M295.906 16.1634C293.093 17.7278 288.7 23.9329 291.63 26.8425C294.56 29.7521 300.581 24.0963 301.105 19.8846C301.629 15.6729 297.785 15.1202 295.906 16.1634Z" fill="#99ADF9"/>
<path opacity="0.44" d="M38.5696 269.338C35.9217 267.507 28.4164 266.305 27.0965 270.216C25.7766 274.128 33.5124 277.019 37.5119 275.648C41.5114 274.277 40.3323 270.562 38.5696 269.338Z" fill="#99ADF9"/>
<g style="mix-blend-mode:multiply" opacity="0.64">
<path d="M57.3402 224.443C52.9273 225.585 53.9171 229.534 55.5939 233.058C57.2706 236.583 62.382 237.275 65.7161 233.726C63.0368 228.388 57.3402 224.443 57.3402 224.443Z" fill="#99ADF9"/>
</g>
<g style="mix-blend-mode:multiply" opacity="0.64">
<path d="M31.2403 220.146C28.0632 220.718 25.7668 225.527 28.277 229.133C30.7872 232.738 35.2733 235.185 37.6651 233.994C40.0569 232.804 40.0955 227.238 38.0793 223.805C36.063 220.371 34.2942 219.594 31.2403 220.146Z" fill="#99ADF9"/>
</g>
<g style="mix-blend-mode:multiply" opacity="0.64">
<path d="M273.701 52.3905C271.982 53.0692 270.33 55.0899 270.624 57.1321C270.919 59.1743 272.832 60.8461 274.761 60.4708C276.689 60.0956 278.133 56.8427 277.581 54.6129C277.029 52.3831 275.013 51.8759 273.701 52.3905Z" fill="#99ADF9"/>
</g>
<g style="mix-blend-mode:multiply" opacity="0.64">
<path d="M255.368 57.6465C255.368 57.6465 257.931 59.8855 257.715 62.6374C257.498 65.3894 253.344 65.4163 253.344 65.4163C253.344 65.4163 253.647 60.7291 255.368 57.6465Z" fill="#99ADF9"/>
</g>
</svg>
