<svg id="Слой_1" data-name="Слой 1" xmlns="http://www.w3.org/2000/svg" viewBox="0 0 391.92 96.2"><defs><style>.cls-1{fill:#5d5fef;}</style></defs><title>landing</title><path class="cls-1" d="M52.92,108.28c-19.94,0-36.1-15.44-36.1-34.49S33,39.3,52.92,39.3h0v-14H4.76v96.21H53V108.28Z" transform="translate(-4.76 -25.31)"/><path class="cls-1" d="M53.16,39.35H53v69h.19c19.93,0,36.1-15.44,36.1-34.49S73.09,39.35,53.16,39.35Z" transform="translate(-4.76 -25.31)"/><path class="cls-1" d="M106.81,86.57a5.73,5.73,0,0,1-3.38-1,7,7,0,0,1-2.29-2.84,9.82,9.82,0,0,1-.83-4.13V54.93a2.09,2.09,0,0,1,2.17-2.17,2.15,2.15,0,0,1,1.56.61,2.11,2.11,0,0,1,.6,1.56V78.57a5.26,5.26,0,0,0,.61,2.64,1.78,1.78,0,0,0,1.56,1h1.08a1.81,1.81,0,0,1,1.41.6,2.28,2.28,0,0,1,.54,1.56A1.89,1.89,0,0,1,109,86a3.52,3.52,0,0,1-2.12.6Z" transform="translate(-4.76 -25.31)"/><path class="cls-1" d="M122.74,86.75a10.43,10.43,0,0,1-5.67-1.58,11.14,11.14,0,0,1-4-4.29,12.69,12.69,0,0,1-1.45-6.12,12,12,0,0,1,1.58-6.15,11.64,11.64,0,0,1,4.28-4.31,12.47,12.47,0,0,1,12.15,0,11.67,11.67,0,0,1,4.26,4.31,12.09,12.09,0,0,1,1.58,6.15h-1.69a12.69,12.69,0,0,1-1.45,6.12,11.3,11.3,0,0,1-4,4.29A10.43,10.43,0,0,1,122.74,86.75Zm.86-3.9a7.33,7.33,0,0,0,3.94-1.06,7.47,7.47,0,0,0,2.73-2.9,8.47,8.47,0,0,0,1-4.13,8.56,8.56,0,0,0-1-4.18,7.64,7.64,0,0,0-10.58-2.9,7.5,7.5,0,0,0-2.77,2.9,8.46,8.46,0,0,0-1,4.18,8.37,8.37,0,0,0,1,4.13,7.57,7.57,0,0,0,2.77,2.9A7.38,7.38,0,0,0,123.6,82.85Zm9.7,3.77a2.15,2.15,0,0,1-2.21-2.21V77.79l.83-4.59,3.59,1.56v9.65a2.15,2.15,0,0,1-2.21,2.21Z" transform="translate(-4.76 -25.31)"/><path class="cls-1" d="M144.3,86.62a2.15,2.15,0,0,1-2.21-2.21V65.1a2.12,2.12,0,0,1,.63-1.6,2.2,2.2,0,0,1,3.79,1.6V84.41A2.21,2.21,0,0,1,145.9,86,2.12,2.12,0,0,1,144.3,86.62Zm17.79,0a2.15,2.15,0,0,1-2.21-2.21V73.76a7.88,7.88,0,0,0-.91-4,5.65,5.65,0,0,0-2.44-2.31,7.83,7.83,0,0,0-3.53-.76,7.27,7.27,0,0,0-3.29.74,6.12,6.12,0,0,0-2.34,2,4.76,4.76,0,0,0-.86,2.83h-2.73a9.09,9.09,0,0,1,1.32-4.87,9.53,9.53,0,0,1,3.61-3.4,10.65,10.65,0,0,1,5.16-1.25A11,11,0,0,1,159.21,64a9.29,9.29,0,0,1,3.73,3.75,12.45,12.45,0,0,1,1.36,6.06V84.41a2.15,2.15,0,0,1-2.21,2.21Z" transform="translate(-4.76 -25.31)"/><path class="cls-1" d="M182.35,86.75A11.73,11.73,0,0,1,172,80.86a12.09,12.09,0,0,1-1.58-6.15,12.81,12.81,0,0,1,1.45-6.12,11.22,11.22,0,0,1,4-4.29,11,11,0,0,1,10.39-.52,10.63,10.63,0,0,1,3.64,2.88V55a2.12,2.12,0,0,1,.63-1.6,2.2,2.2,0,0,1,3.79,1.6V74.71a12.09,12.09,0,0,1-1.58,6.15,11.66,11.66,0,0,1-10.33,5.89Zm0-3.9a7.36,7.36,0,0,0,3.94-1.06A7.53,7.53,0,0,0,189,78.87a8.72,8.72,0,0,0,1-4.16,8.52,8.52,0,0,0-1-4.15,7.49,7.49,0,0,0-2.73-2.88,7.82,7.82,0,0,0-7.86,0,7.59,7.59,0,0,0-2.77,2.88,8.31,8.31,0,0,0-1,4.15,8.51,8.51,0,0,0,1,4.16,7.63,7.63,0,0,0,2.77,2.92A7.41,7.41,0,0,0,182.35,82.85Z" transform="translate(-4.76 -25.31)"/><path class="cls-1" d="M204.69,59a2.89,2.89,0,0,1-2.86-2.86,2.71,2.71,0,0,1,.85-2,2.82,2.82,0,0,1,4,0,2.71,2.71,0,0,1,.85,2A2.89,2.89,0,0,1,204.69,59Zm0,27.53a2.12,2.12,0,0,1-1.58-.62,2.15,2.15,0,0,1-.63-1.58V65.1a2.12,2.12,0,0,1,.63-1.6,2.38,2.38,0,0,1,3.18,0,2.14,2.14,0,0,1,.61,1.6V84.37a2.17,2.17,0,0,1-.61,1.58A2.11,2.11,0,0,1,204.69,86.57Z" transform="translate(-4.76 -25.31)"/><path class="cls-1" d="M217.33,86.62a2.15,2.15,0,0,1-2.21-2.21V65.1a2.12,2.12,0,0,1,.63-1.6,2.2,2.2,0,0,1,3.79,1.6V84.41a2.21,2.21,0,0,1-.61,1.58A2.12,2.12,0,0,1,217.33,86.62Zm17.79,0a2.14,2.14,0,0,1-2.2-2.21V73.76a8,8,0,0,0-.91-4,5.73,5.73,0,0,0-2.45-2.31,7.8,7.8,0,0,0-3.53-.76,7.27,7.27,0,0,0-3.29.74,6.12,6.12,0,0,0-2.34,2,4.83,4.83,0,0,0-.86,2.83h-2.73a9.09,9.09,0,0,1,1.32-4.87,9.56,9.56,0,0,1,3.62-3.4,10.61,10.61,0,0,1,5.15-1.25A11,11,0,0,1,232.24,64,9.23,9.23,0,0,1,236,67.7a12.34,12.34,0,0,1,1.36,6.06V84.41a2.15,2.15,0,0,1-2.21,2.21Z" transform="translate(-4.76 -25.31)"/><path class="cls-1" d="M254.52,86.75a10.65,10.65,0,0,1-5.74-1.54A10.85,10.85,0,0,1,244.86,81a13.17,13.17,0,0,1-1.43-6.21A12.49,12.49,0,0,1,245,68.5a11.16,11.16,0,0,1,4.22-4.24,13.13,13.13,0,0,1,12.34,0,11.09,11.09,0,0,1,4.22,4.24,12.39,12.39,0,0,1,1.54,6.26h-2.56A14,14,0,0,1,263.41,81a10.51,10.51,0,0,1-3.61,4.24A9.23,9.23,0,0,1,254.52,86.75Zm.78,9.65a13.8,13.8,0,0,1-5.76-1.21A12.12,12.12,0,0,1,245,91.64a1.87,1.87,0,0,1-.41-1.52,1.9,1.9,0,0,1,.85-1.25,2.08,2.08,0,0,1,1.62-.35,2.22,2.22,0,0,1,1.36.87,8,8,0,0,0,3,2.29,9.41,9.41,0,0,0,4,.82,7.65,7.65,0,0,0,3.83-1,7.23,7.23,0,0,0,2.8-2.94,10.07,10.07,0,0,0,1-4.77V77.66l1.43-3.81,2.82.91v9.35a12.8,12.8,0,0,1-1.52,6.21,11.54,11.54,0,0,1-4.22,4.44A11.85,11.85,0,0,1,255.3,96.4Zm.08-13.55a7.66,7.66,0,0,0,4-1,7.26,7.26,0,0,0,2.7-2.85,8.79,8.79,0,0,0,1-4.2,8.92,8.92,0,0,0-1-4.23,7.25,7.25,0,0,0-2.7-2.87,8.15,8.15,0,0,0-8,0,7.47,7.47,0,0,0-2.73,2.87,8.81,8.81,0,0,0-1,4.23,8.69,8.69,0,0,0,1,4.2,7.48,7.48,0,0,0,2.73,2.85A7.6,7.6,0,0,0,255.38,82.85Z" transform="translate(-4.76 -25.31)"/><path class="cls-1" d="M288.76,96.7a2.14,2.14,0,0,1-2.21-2.2V74.76a12.62,12.62,0,0,1,1.6-6.15,11.57,11.57,0,0,1,4.25-4.31,12,12,0,0,1,16.43,4.31,12.09,12.09,0,0,1,1.58,6.15A12.81,12.81,0,0,1,309,80.88a11.3,11.3,0,0,1-4,4.29,11,11,0,0,1-10.37.52A11.2,11.2,0,0,1,291,82.81V94.5a2.17,2.17,0,0,1-.61,1.58A2.11,2.11,0,0,1,288.76,96.7Zm9.7-13.85a7.38,7.38,0,0,0,3.94-1.06,7.75,7.75,0,0,0,2.75-2.9,9.05,9.05,0,0,0,0-8.31,7.68,7.68,0,0,0-2.75-2.9,7.58,7.58,0,0,0-10.61,2.9,9.13,9.13,0,0,0,0,8.31,7.45,7.45,0,0,0,6.67,4Z" transform="translate(-4.76 -25.31)"/><path class="cls-1" d="M326.86,86.75a10.43,10.43,0,0,1-5.67-1.58,11.24,11.24,0,0,1-4-4.29,12.81,12.81,0,0,1-1.45-6.12,12.09,12.09,0,0,1,1.58-6.15,12,12,0,0,1,20.7,0,12.09,12.09,0,0,1,1.58,6.15h-1.69a12.69,12.69,0,0,1-1.45,6.12,11.3,11.3,0,0,1-4,4.29A10.48,10.48,0,0,1,326.86,86.75Zm.86-3.9a7.36,7.36,0,0,0,3.94-1.06,7.47,7.47,0,0,0,2.73-2.9,8.58,8.58,0,0,0,1-4.13,8.66,8.66,0,0,0-1-4.18,7.65,7.65,0,0,0-10.59-2.9,7.65,7.65,0,0,0-2.77,2.9,9.05,9.05,0,0,0,0,8.31,7.72,7.72,0,0,0,2.77,2.9A7.41,7.41,0,0,0,327.72,82.85Zm9.7,3.77a2.15,2.15,0,0,1-2.21-2.21V77.79L336,73.2l3.6,1.56v9.65a2.15,2.15,0,0,1-2.21,2.21Z" transform="translate(-4.76 -25.31)"/><path class="cls-1" d="M356.08,86.75a10.65,10.65,0,0,1-5.74-1.54A10.85,10.85,0,0,1,346.42,81,13.16,13.16,0,0,1,345,74.76a12.49,12.49,0,0,1,1.53-6.26,11.16,11.16,0,0,1,4.22-4.24,13.13,13.13,0,0,1,12.34,0,11.09,11.09,0,0,1,4.22,4.24,12.39,12.39,0,0,1,1.54,6.26h-2.56A14,14,0,0,1,365,81a10.51,10.51,0,0,1-3.61,4.24A9.23,9.23,0,0,1,356.08,86.75Zm.78,9.65a13.8,13.8,0,0,1-5.76-1.21,12.12,12.12,0,0,1-4.55-3.55,1.87,1.87,0,0,1-.41-1.52,1.93,1.93,0,0,1,.85-1.25,2.08,2.08,0,0,1,1.62-.35,2.22,2.22,0,0,1,1.36.87,8,8,0,0,0,2.95,2.29,9.41,9.41,0,0,0,4,.82,7.68,7.68,0,0,0,3.84-1,7.21,7.21,0,0,0,2.79-2.94,10.07,10.07,0,0,0,1-4.77V77.66L366,73.85l2.81.91v9.35a12.8,12.8,0,0,1-1.52,6.21,11.54,11.54,0,0,1-4.22,4.44A11.85,11.85,0,0,1,356.86,96.4Zm.08-13.55a7.66,7.66,0,0,0,4-1,7.26,7.26,0,0,0,2.7-2.85,8.8,8.8,0,0,0,1-4.2,8.92,8.92,0,0,0-1-4.23,7.25,7.25,0,0,0-2.7-2.87,8.15,8.15,0,0,0-8,0,7.47,7.47,0,0,0-2.73,2.87,8.81,8.81,0,0,0-1,4.23,8.69,8.69,0,0,0,1,4.2A7.48,7.48,0,0,0,353,81.81,7.62,7.62,0,0,0,356.94,82.85Z" transform="translate(-4.76 -25.31)"/><path class="cls-1" d="M386.56,86.75a13,13,0,0,1-6.39-1.54A11.21,11.21,0,0,1,375.8,81a12.05,12.05,0,0,1-1.58-6.21,12.68,12.68,0,0,1,1.49-6.26,10.89,10.89,0,0,1,4.14-4.24,11.77,11.77,0,0,1,6.06-1.54,10.9,10.9,0,0,1,5.8,1.49,9.78,9.78,0,0,1,3.7,4.12,13.62,13.62,0,0,1,1.28,6,1.8,1.8,0,0,1-.57,1.36,2,2,0,0,1-1.43.54H377.25V72.81h17.31L392.79,74a9.25,9.25,0,0,0-.87-3.87,6.49,6.49,0,0,0-2.33-2.71,6.59,6.59,0,0,0-3.68-1,7.77,7.77,0,0,0-4.22,1.09,7,7,0,0,0-2.67,3,9.8,9.8,0,0,0-.91,4.27A8.21,8.21,0,0,0,379.2,79a7.86,7.86,0,0,0,3,2.94A8.73,8.73,0,0,0,386.56,83a8.18,8.18,0,0,0,2.74-.49,8.64,8.64,0,0,0,2.28-1.15,2.46,2.46,0,0,1,1.4-.5,1.89,1.89,0,0,1,1.32.46,2.05,2.05,0,0,1,.78,1.42,1.55,1.55,0,0,1-.69,1.35,11.9,11.9,0,0,1-3.66,1.9A13.07,13.07,0,0,1,386.56,86.75Z" transform="translate(-4.76 -25.31)"/></svg>